<mxfile host="app.diagrams.net" modified="2024-02-19T06:55:04.982Z" agent="Mozilla/5.0 (Windows NT 10.0; Win64; x64) AppleWebKit/537.36 (KHTML, like Gecko) Chrome/121.0.0.0 Safari/537.36" etag="gf3c0yee7gfRZFUMF2bQ" version="22.1.18" type="github">
  <diagram name="第 1 页" id="Bz7fHObgoYESsKS7oHjU">
    <mxGraphModel dx="2571" dy="-133" grid="0" gridSize="10" guides="1" tooltips="1" connect="1" arrows="1" fold="1" page="1" pageScale="1" pageWidth="827" pageHeight="1169" math="0" shadow="0">
      <root>
        <mxCell id="0" />
        <mxCell id="1" parent="0" />
        <mxCell id="Q4zD-7pTCFBztnlqzq78-3" value="Категории" style="rounded=0;whiteSpace=wrap;html=1;" vertex="1" parent="1">
          <mxGeometry x="-99" y="1934" width="106" height="38" as="geometry" />
        </mxCell>
        <mxCell id="Q4zD-7pTCFBztnlqzq78-4" value="поиск" style="rounded=0;whiteSpace=wrap;html=1;" vertex="1" parent="1">
          <mxGeometry x="27" y="1934.5" width="734" height="37" as="geometry" />
        </mxCell>
        <mxCell id="Q4zD-7pTCFBztnlqzq78-6" value="" style="shape=table;startSize=0;container=1;collapsible=0;childLayout=tableLayout;fontSize=16;" vertex="1" parent="1">
          <mxGeometry x="774" y="1934.5" width="232.83" height="36.5" as="geometry" />
        </mxCell>
        <mxCell id="Q4zD-7pTCFBztnlqzq78-7" value="" style="shape=tableRow;horizontal=0;startSize=0;swimlaneHead=0;swimlaneBody=0;strokeColor=inherit;top=0;left=0;bottom=0;right=0;collapsible=0;dropTarget=0;fillColor=none;points=[[0,0.5],[1,0.5]];portConstraint=eastwest;fontSize=16;" vertex="1" parent="Q4zD-7pTCFBztnlqzq78-6">
          <mxGeometry width="232.83" height="37" as="geometry" />
        </mxCell>
        <mxCell id="Q4zD-7pTCFBztnlqzq78-8" value="&lt;font style=&quot;font-size: 11px;&quot;&gt;Авторизоваться&lt;/font&gt;" style="shape=partialRectangle;html=1;whiteSpace=wrap;connectable=0;strokeColor=inherit;overflow=hidden;fillColor=none;top=0;left=0;bottom=0;right=0;pointerEvents=1;fontSize=16;" vertex="1" parent="Q4zD-7pTCFBztnlqzq78-7">
          <mxGeometry width="85" height="37" as="geometry">
            <mxRectangle width="85" height="37" as="alternateBounds" />
          </mxGeometry>
        </mxCell>
        <mxCell id="Q4zD-7pTCFBztnlqzq78-9" value="&lt;font style=&quot;font-size: 11px;&quot;&gt;Заказы&lt;/font&gt;" style="shape=partialRectangle;html=1;whiteSpace=wrap;connectable=0;strokeColor=inherit;overflow=hidden;fillColor=none;top=0;left=0;bottom=0;right=0;pointerEvents=1;fontSize=16;" vertex="1" parent="Q4zD-7pTCFBztnlqzq78-7">
          <mxGeometry x="85" width="42" height="37" as="geometry">
            <mxRectangle width="42" height="37" as="alternateBounds" />
          </mxGeometry>
        </mxCell>
        <mxCell id="Q4zD-7pTCFBztnlqzq78-10" value="&lt;font style=&quot;font-size: 11px;&quot;&gt;Избранное&lt;/font&gt;" style="shape=partialRectangle;html=1;whiteSpace=wrap;connectable=0;strokeColor=inherit;overflow=hidden;fillColor=none;top=0;left=0;bottom=0;right=0;pointerEvents=1;fontSize=16;" vertex="1" parent="Q4zD-7pTCFBztnlqzq78-7">
          <mxGeometry x="127" width="58" height="37" as="geometry">
            <mxRectangle width="58" height="37" as="alternateBounds" />
          </mxGeometry>
        </mxCell>
        <mxCell id="Q4zD-7pTCFBztnlqzq78-11" value="&lt;font style=&quot;font-size: 11px;&quot;&gt;Корзина&lt;/font&gt;" style="shape=partialRectangle;html=1;whiteSpace=wrap;connectable=0;strokeColor=inherit;overflow=hidden;fillColor=none;top=0;left=0;bottom=0;right=0;pointerEvents=1;fontSize=16;" vertex="1" parent="Q4zD-7pTCFBztnlqzq78-7">
          <mxGeometry x="185" width="48" height="37" as="geometry">
            <mxRectangle width="48" height="37" as="alternateBounds" />
          </mxGeometry>
        </mxCell>
        <mxCell id="Q4zD-7pTCFBztnlqzq78-13" value="&lt;font style=&quot;font-size: 20px;&quot;&gt;изображение продукта&lt;/font&gt;" style="rounded=0;whiteSpace=wrap;html=1;" vertex="1" parent="1">
          <mxGeometry x="-157" y="2011" width="803" height="496" as="geometry" />
        </mxCell>
        <mxCell id="Q4zD-7pTCFBztnlqzq78-18" value="" style="rounded=0;whiteSpace=wrap;html=1;" vertex="1" parent="1">
          <mxGeometry x="-207" y="2750" width="1217" height="435" as="geometry" />
        </mxCell>
        <mxCell id="Q4zD-7pTCFBztnlqzq78-19" value="товар" style="swimlane;whiteSpace=wrap;html=1;startSize=134;" vertex="1" parent="1">
          <mxGeometry x="497" y="2763" width="124" height="184" as="geometry" />
        </mxCell>
        <mxCell id="Q4zD-7pTCFBztnlqzq78-20" value="цена" style="text;html=1;align=center;verticalAlign=middle;resizable=0;points=[];autosize=1;strokeColor=none;fillColor=none;" vertex="1" parent="Q4zD-7pTCFBztnlqzq78-19">
          <mxGeometry x="39.5" y="143" width="45" height="26" as="geometry" />
        </mxCell>
        <mxCell id="Q4zD-7pTCFBztnlqzq78-21" value="товар" style="swimlane;whiteSpace=wrap;html=1;startSize=134;" vertex="1" parent="1">
          <mxGeometry x="327" y="2765" width="124" height="184" as="geometry" />
        </mxCell>
        <mxCell id="Q4zD-7pTCFBztnlqzq78-22" value="цена" style="text;html=1;align=center;verticalAlign=middle;resizable=0;points=[];autosize=1;strokeColor=none;fillColor=none;" vertex="1" parent="Q4zD-7pTCFBztnlqzq78-21">
          <mxGeometry x="39.5" y="143" width="45" height="26" as="geometry" />
        </mxCell>
        <mxCell id="Q4zD-7pTCFBztnlqzq78-23" value="товар" style="swimlane;whiteSpace=wrap;html=1;startSize=134;" vertex="1" parent="1">
          <mxGeometry x="158" y="2763" width="124" height="184" as="geometry" />
        </mxCell>
        <mxCell id="Q4zD-7pTCFBztnlqzq78-24" value="цена" style="text;html=1;align=center;verticalAlign=middle;resizable=0;points=[];autosize=1;strokeColor=none;fillColor=none;" vertex="1" parent="Q4zD-7pTCFBztnlqzq78-23">
          <mxGeometry x="39.5" y="143" width="45" height="26" as="geometry" />
        </mxCell>
        <mxCell id="Q4zD-7pTCFBztnlqzq78-25" value="товар" style="swimlane;whiteSpace=wrap;html=1;startSize=134;" vertex="1" parent="1">
          <mxGeometry x="-9" y="2763" width="124" height="184" as="geometry" />
        </mxCell>
        <mxCell id="Q4zD-7pTCFBztnlqzq78-26" value="цена" style="text;html=1;align=center;verticalAlign=middle;resizable=0;points=[];autosize=1;strokeColor=none;fillColor=none;" vertex="1" parent="Q4zD-7pTCFBztnlqzq78-25">
          <mxGeometry x="39.5" y="143" width="45" height="26" as="geometry" />
        </mxCell>
        <mxCell id="Q4zD-7pTCFBztnlqzq78-27" value="товар" style="swimlane;whiteSpace=wrap;html=1;startSize=134;" vertex="1" parent="1">
          <mxGeometry x="-175" y="2763" width="124" height="184" as="geometry" />
        </mxCell>
        <mxCell id="Q4zD-7pTCFBztnlqzq78-28" value="цена" style="text;html=1;align=center;verticalAlign=middle;resizable=0;points=[];autosize=1;strokeColor=none;fillColor=none;" vertex="1" parent="Q4zD-7pTCFBztnlqzq78-27">
          <mxGeometry x="39.5" y="143" width="45" height="26" as="geometry" />
        </mxCell>
        <mxCell id="Q4zD-7pTCFBztnlqzq78-29" value="товар" style="swimlane;whiteSpace=wrap;html=1;startSize=134;" vertex="1" parent="1">
          <mxGeometry x="-175" y="2978" width="124" height="184" as="geometry" />
        </mxCell>
        <mxCell id="Q4zD-7pTCFBztnlqzq78-30" value="цена" style="text;html=1;align=center;verticalAlign=middle;resizable=0;points=[];autosize=1;strokeColor=none;fillColor=none;" vertex="1" parent="Q4zD-7pTCFBztnlqzq78-29">
          <mxGeometry x="39.5" y="143" width="45" height="26" as="geometry" />
        </mxCell>
        <mxCell id="Q4zD-7pTCFBztnlqzq78-31" value="товар" style="swimlane;whiteSpace=wrap;html=1;startSize=134;" vertex="1" parent="1">
          <mxGeometry x="-9" y="2981" width="124" height="184" as="geometry" />
        </mxCell>
        <mxCell id="Q4zD-7pTCFBztnlqzq78-32" value="цена" style="text;html=1;align=center;verticalAlign=middle;resizable=0;points=[];autosize=1;strokeColor=none;fillColor=none;" vertex="1" parent="Q4zD-7pTCFBztnlqzq78-31">
          <mxGeometry x="39.5" y="143" width="45" height="26" as="geometry" />
        </mxCell>
        <mxCell id="Q4zD-7pTCFBztnlqzq78-33" value="товар" style="swimlane;whiteSpace=wrap;html=1;startSize=134;" vertex="1" parent="1">
          <mxGeometry x="842" y="2763" width="124" height="184" as="geometry" />
        </mxCell>
        <mxCell id="Q4zD-7pTCFBztnlqzq78-34" value="цена" style="text;html=1;align=center;verticalAlign=middle;resizable=0;points=[];autosize=1;strokeColor=none;fillColor=none;" vertex="1" parent="Q4zD-7pTCFBztnlqzq78-33">
          <mxGeometry x="39.5" y="143" width="45" height="26" as="geometry" />
        </mxCell>
        <mxCell id="Q4zD-7pTCFBztnlqzq78-35" value="товар" style="swimlane;whiteSpace=wrap;html=1;startSize=134;" vertex="1" parent="1">
          <mxGeometry x="673.5" y="2763" width="124" height="184" as="geometry" />
        </mxCell>
        <mxCell id="Q4zD-7pTCFBztnlqzq78-36" value="цена" style="text;html=1;align=center;verticalAlign=middle;resizable=0;points=[];autosize=1;strokeColor=none;fillColor=none;" vertex="1" parent="Q4zD-7pTCFBztnlqzq78-35">
          <mxGeometry x="39.5" y="143" width="45" height="26" as="geometry" />
        </mxCell>
        <mxCell id="Q4zD-7pTCFBztnlqzq78-37" value="товар" style="swimlane;whiteSpace=wrap;html=1;startSize=134;" vertex="1" parent="1">
          <mxGeometry x="846" y="2978" width="124" height="184" as="geometry" />
        </mxCell>
        <mxCell id="Q4zD-7pTCFBztnlqzq78-38" value="цена" style="text;html=1;align=center;verticalAlign=middle;resizable=0;points=[];autosize=1;strokeColor=none;fillColor=none;" vertex="1" parent="Q4zD-7pTCFBztnlqzq78-37">
          <mxGeometry x="39.5" y="143" width="45" height="26" as="geometry" />
        </mxCell>
        <mxCell id="Q4zD-7pTCFBztnlqzq78-39" value="товар" style="swimlane;whiteSpace=wrap;html=1;startSize=134;" vertex="1" parent="1">
          <mxGeometry x="673.5" y="2978" width="124" height="184" as="geometry" />
        </mxCell>
        <mxCell id="Q4zD-7pTCFBztnlqzq78-40" value="цена" style="text;html=1;align=center;verticalAlign=middle;resizable=0;points=[];autosize=1;strokeColor=none;fillColor=none;" vertex="1" parent="Q4zD-7pTCFBztnlqzq78-39">
          <mxGeometry x="39.5" y="143" width="45" height="26" as="geometry" />
        </mxCell>
        <mxCell id="Q4zD-7pTCFBztnlqzq78-41" value="товар" style="swimlane;whiteSpace=wrap;html=1;startSize=134;" vertex="1" parent="1">
          <mxGeometry x="497" y="2981" width="124" height="184" as="geometry" />
        </mxCell>
        <mxCell id="Q4zD-7pTCFBztnlqzq78-42" value="цена" style="text;html=1;align=center;verticalAlign=middle;resizable=0;points=[];autosize=1;strokeColor=none;fillColor=none;" vertex="1" parent="Q4zD-7pTCFBztnlqzq78-41">
          <mxGeometry x="39.5" y="143" width="45" height="26" as="geometry" />
        </mxCell>
        <mxCell id="Q4zD-7pTCFBztnlqzq78-43" value="товар" style="swimlane;whiteSpace=wrap;html=1;startSize=134;" vertex="1" parent="1">
          <mxGeometry x="331" y="2981" width="124" height="184" as="geometry" />
        </mxCell>
        <mxCell id="Q4zD-7pTCFBztnlqzq78-44" value="цена" style="text;html=1;align=center;verticalAlign=middle;resizable=0;points=[];autosize=1;strokeColor=none;fillColor=none;" vertex="1" parent="Q4zD-7pTCFBztnlqzq78-43">
          <mxGeometry x="39.5" y="143" width="45" height="26" as="geometry" />
        </mxCell>
        <mxCell id="Q4zD-7pTCFBztnlqzq78-45" value="товар" style="swimlane;whiteSpace=wrap;html=1;startSize=134;" vertex="1" parent="1">
          <mxGeometry x="158" y="2978" width="124" height="184" as="geometry" />
        </mxCell>
        <mxCell id="Q4zD-7pTCFBztnlqzq78-46" value="цена" style="text;html=1;align=center;verticalAlign=middle;resizable=0;points=[];autosize=1;strokeColor=none;fillColor=none;" vertex="1" parent="Q4zD-7pTCFBztnlqzq78-45">
          <mxGeometry x="39.5" y="143" width="45" height="26" as="geometry" />
        </mxCell>
        <mxCell id="Q4zD-7pTCFBztnlqzq78-48" value="" style="rounded=1;whiteSpace=wrap;html=1;" vertex="1" parent="1">
          <mxGeometry x="680" y="2011" width="278" height="208" as="geometry" />
        </mxCell>
        <mxCell id="Q4zD-7pTCFBztnlqzq78-50" value="&lt;font style=&quot;font-size: 18px;&quot;&gt;добавить в корзину&lt;/font&gt;" style="rounded=1;whiteSpace=wrap;html=1;" vertex="1" parent="1">
          <mxGeometry x="699" y="2146" width="181" height="53" as="geometry" />
        </mxCell>
        <mxCell id="Q4zD-7pTCFBztnlqzq78-51" value="&lt;font style=&quot;font-size: 24px;&quot;&gt;добавить в корзину&lt;/font&gt;" style="text;html=1;strokeColor=none;fillColor=none;align=center;verticalAlign=middle;whiteSpace=wrap;rounded=0;" vertex="1" parent="1">
          <mxGeometry x="685" y="2029" width="248" height="76" as="geometry" />
        </mxCell>
        <mxCell id="Q4zD-7pTCFBztnlqzq78-52" value="&lt;font style=&quot;font-size: 18px;&quot;&gt;Покупка в один клик&lt;/font&gt;" style="rounded=1;whiteSpace=wrap;html=1;" vertex="1" parent="1">
          <mxGeometry x="685" y="2379" width="215" height="64" as="geometry" />
        </mxCell>
        <mxCell id="Q4zD-7pTCFBztnlqzq78-80" value="" style="shape=table;startSize=0;container=1;collapsible=0;childLayout=tableLayout;fontSize=16;" vertex="1" parent="1">
          <mxGeometry x="-124" y="2525" width="229" height="40" as="geometry" />
        </mxCell>
        <mxCell id="Q4zD-7pTCFBztnlqzq78-81" value="" style="shape=tableRow;horizontal=0;startSize=0;swimlaneHead=0;swimlaneBody=0;strokeColor=inherit;top=0;left=0;bottom=0;right=0;collapsible=0;dropTarget=0;fillColor=none;points=[[0,0.5],[1,0.5]];portConstraint=eastwest;fontSize=16;" vertex="1" parent="Q4zD-7pTCFBztnlqzq78-80">
          <mxGeometry width="229" height="40" as="geometry" />
        </mxCell>
        <mxCell id="Q4zD-7pTCFBztnlqzq78-82" value="" style="shape=partialRectangle;html=1;whiteSpace=wrap;connectable=0;strokeColor=inherit;overflow=hidden;fillColor=none;top=0;left=0;bottom=0;right=0;pointerEvents=1;fontSize=16;" vertex="1" parent="Q4zD-7pTCFBztnlqzq78-81">
          <mxGeometry width="76" height="40" as="geometry">
            <mxRectangle width="76" height="40" as="alternateBounds" />
          </mxGeometry>
        </mxCell>
        <mxCell id="Q4zD-7pTCFBztnlqzq78-83" value="" style="shape=partialRectangle;html=1;whiteSpace=wrap;connectable=0;strokeColor=inherit;overflow=hidden;fillColor=none;top=0;left=0;bottom=0;right=0;pointerEvents=1;fontSize=16;" vertex="1" parent="Q4zD-7pTCFBztnlqzq78-81">
          <mxGeometry x="76" width="77" height="40" as="geometry">
            <mxRectangle width="77" height="40" as="alternateBounds" />
          </mxGeometry>
        </mxCell>
        <mxCell id="Q4zD-7pTCFBztnlqzq78-84" value="" style="shape=partialRectangle;html=1;whiteSpace=wrap;connectable=0;strokeColor=inherit;overflow=hidden;fillColor=none;top=0;left=0;bottom=0;right=0;pointerEvents=1;fontSize=16;" vertex="1" parent="Q4zD-7pTCFBztnlqzq78-81">
          <mxGeometry x="153" width="76" height="40" as="geometry">
            <mxRectangle width="76" height="40" as="alternateBounds" />
          </mxGeometry>
        </mxCell>
        <mxCell id="Q4zD-7pTCFBztnlqzq78-94" value="" style="verticalLabelPosition=bottom;verticalAlign=top;html=1;shape=mxgraph.basic.rect;fillColor2=none;strokeWidth=1;size=20;indent=5;" vertex="1" parent="1">
          <mxGeometry x="-188" y="1930" width="1215" height="738" as="geometry" />
        </mxCell>
        <mxCell id="Q4zD-7pTCFBztnlqzq78-95" value="логотип" style="rounded=0;whiteSpace=wrap;html=1;" vertex="1" parent="1">
          <mxGeometry x="-188" y="1930" width="80" height="39" as="geometry" />
        </mxCell>
        <mxCell id="Q4zD-7pTCFBztnlqzq78-96" value="Категории" style="rounded=0;whiteSpace=wrap;html=1;" vertex="1" parent="1">
          <mxGeometry x="-89" y="1944" width="106" height="38" as="geometry" />
        </mxCell>
        <mxCell id="Q4zD-7pTCFBztnlqzq78-97" value="поиск" style="rounded=0;whiteSpace=wrap;html=1;" vertex="1" parent="1">
          <mxGeometry x="37" y="1944.5" width="734" height="37" as="geometry" />
        </mxCell>
        <mxCell id="Q4zD-7pTCFBztnlqzq78-98" value="" style="shape=table;startSize=0;container=1;collapsible=0;childLayout=tableLayout;fontSize=16;" vertex="1" parent="1">
          <mxGeometry x="784" y="1944.5" width="232.83" height="36.5" as="geometry" />
        </mxCell>
        <mxCell id="Q4zD-7pTCFBztnlqzq78-99" value="" style="shape=tableRow;horizontal=0;startSize=0;swimlaneHead=0;swimlaneBody=0;strokeColor=inherit;top=0;left=0;bottom=0;right=0;collapsible=0;dropTarget=0;fillColor=none;points=[[0,0.5],[1,0.5]];portConstraint=eastwest;fontSize=16;" vertex="1" parent="Q4zD-7pTCFBztnlqzq78-98">
          <mxGeometry width="232.83" height="37" as="geometry" />
        </mxCell>
        <mxCell id="Q4zD-7pTCFBztnlqzq78-100" value="&lt;font style=&quot;font-size: 11px;&quot;&gt;Авторизоваться&lt;/font&gt;" style="shape=partialRectangle;html=1;whiteSpace=wrap;connectable=0;strokeColor=inherit;overflow=hidden;fillColor=none;top=0;left=0;bottom=0;right=0;pointerEvents=1;fontSize=16;" vertex="1" parent="Q4zD-7pTCFBztnlqzq78-99">
          <mxGeometry width="85" height="37" as="geometry">
            <mxRectangle width="85" height="37" as="alternateBounds" />
          </mxGeometry>
        </mxCell>
        <mxCell id="Q4zD-7pTCFBztnlqzq78-101" value="&lt;font style=&quot;font-size: 11px;&quot;&gt;Заказы&lt;/font&gt;" style="shape=partialRectangle;html=1;whiteSpace=wrap;connectable=0;strokeColor=inherit;overflow=hidden;fillColor=none;top=0;left=0;bottom=0;right=0;pointerEvents=1;fontSize=16;" vertex="1" parent="Q4zD-7pTCFBztnlqzq78-99">
          <mxGeometry x="85" width="42" height="37" as="geometry">
            <mxRectangle width="42" height="37" as="alternateBounds" />
          </mxGeometry>
        </mxCell>
        <mxCell id="Q4zD-7pTCFBztnlqzq78-102" value="&lt;font style=&quot;font-size: 11px;&quot;&gt;Избранное&lt;/font&gt;" style="shape=partialRectangle;html=1;whiteSpace=wrap;connectable=0;strokeColor=inherit;overflow=hidden;fillColor=none;top=0;left=0;bottom=0;right=0;pointerEvents=1;fontSize=16;" vertex="1" parent="Q4zD-7pTCFBztnlqzq78-99">
          <mxGeometry x="127" width="58" height="37" as="geometry">
            <mxRectangle width="58" height="37" as="alternateBounds" />
          </mxGeometry>
        </mxCell>
        <mxCell id="Q4zD-7pTCFBztnlqzq78-103" value="&lt;font style=&quot;font-size: 11px;&quot;&gt;Корзина&lt;/font&gt;" style="shape=partialRectangle;html=1;whiteSpace=wrap;connectable=0;strokeColor=inherit;overflow=hidden;fillColor=none;top=0;left=0;bottom=0;right=0;pointerEvents=1;fontSize=16;" vertex="1" parent="Q4zD-7pTCFBztnlqzq78-99">
          <mxGeometry x="185" width="48" height="37" as="geometry">
            <mxRectangle width="48" height="37" as="alternateBounds" />
          </mxGeometry>
        </mxCell>
        <mxCell id="Q4zD-7pTCFBztnlqzq78-114" value="" style="shape=table;startSize=0;container=1;collapsible=0;childLayout=tableLayout;fontSize=16;" vertex="1" parent="1">
          <mxGeometry x="-132" y="2112" width="742" height="288" as="geometry" />
        </mxCell>
        <mxCell id="Q4zD-7pTCFBztnlqzq78-115" value="" style="shape=tableRow;horizontal=0;startSize=0;swimlaneHead=0;swimlaneBody=0;strokeColor=inherit;top=0;left=0;bottom=0;right=0;collapsible=0;dropTarget=0;fillColor=none;points=[[0,0.5],[1,0.5]];portConstraint=eastwest;fontSize=16;" vertex="1" parent="Q4zD-7pTCFBztnlqzq78-114">
          <mxGeometry width="742" height="96" as="geometry" />
        </mxCell>
        <mxCell id="Q4zD-7pTCFBztnlqzq78-116" value="&lt;font style=&quot;font-size: 48px;&quot;&gt;товар1&lt;/font&gt;" style="shape=partialRectangle;html=1;whiteSpace=wrap;connectable=0;strokeColor=inherit;overflow=hidden;fillColor=none;top=0;left=0;bottom=0;right=0;pointerEvents=1;fontSize=16;" vertex="1" parent="Q4zD-7pTCFBztnlqzq78-115">
          <mxGeometry width="742" height="96" as="geometry">
            <mxRectangle width="742" height="96" as="alternateBounds" />
          </mxGeometry>
        </mxCell>
        <mxCell id="Q4zD-7pTCFBztnlqzq78-119" value="" style="shape=tableRow;horizontal=0;startSize=0;swimlaneHead=0;swimlaneBody=0;strokeColor=inherit;top=0;left=0;bottom=0;right=0;collapsible=0;dropTarget=0;fillColor=none;points=[[0,0.5],[1,0.5]];portConstraint=eastwest;fontSize=16;" vertex="1" parent="Q4zD-7pTCFBztnlqzq78-114">
          <mxGeometry y="96" width="742" height="96" as="geometry" />
        </mxCell>
        <mxCell id="Q4zD-7pTCFBztnlqzq78-120" value="&lt;font style=&quot;font-size: 48px;&quot;&gt;товар2&lt;/font&gt;" style="shape=partialRectangle;html=1;whiteSpace=wrap;connectable=0;strokeColor=inherit;overflow=hidden;fillColor=none;top=0;left=0;bottom=0;right=0;pointerEvents=1;fontSize=16;" vertex="1" parent="Q4zD-7pTCFBztnlqzq78-119">
          <mxGeometry width="742" height="96" as="geometry">
            <mxRectangle width="742" height="96" as="alternateBounds" />
          </mxGeometry>
        </mxCell>
        <mxCell id="Q4zD-7pTCFBztnlqzq78-123" value="" style="shape=tableRow;horizontal=0;startSize=0;swimlaneHead=0;swimlaneBody=0;strokeColor=inherit;top=0;left=0;bottom=0;right=0;collapsible=0;dropTarget=0;fillColor=none;points=[[0,0.5],[1,0.5]];portConstraint=eastwest;fontSize=16;" vertex="1" parent="Q4zD-7pTCFBztnlqzq78-114">
          <mxGeometry y="192" width="742" height="96" as="geometry" />
        </mxCell>
        <mxCell id="Q4zD-7pTCFBztnlqzq78-124" value="&lt;font style=&quot;font-size: 48px;&quot;&gt;товар2&lt;/font&gt;" style="shape=partialRectangle;html=1;whiteSpace=wrap;connectable=0;strokeColor=inherit;overflow=hidden;fillColor=none;top=0;left=0;bottom=0;right=0;pointerEvents=1;fontSize=16;" vertex="1" parent="Q4zD-7pTCFBztnlqzq78-123">
          <mxGeometry width="742" height="96" as="geometry">
            <mxRectangle width="742" height="96" as="alternateBounds" />
          </mxGeometry>
        </mxCell>
        <mxCell id="Q4zD-7pTCFBztnlqzq78-127" value="&lt;font style=&quot;font-size: 18px;&quot;&gt;Перейти к оформлению&lt;/font&gt;" style="rounded=1;whiteSpace=wrap;html=1;" vertex="1" parent="1">
          <mxGeometry x="737" y="2112" width="229" height="59" as="geometry" />
        </mxCell>
        <mxCell id="Q4zD-7pTCFBztnlqzq78-128" value="&lt;font style=&quot;font-size: 18px;&quot;&gt;Ваша корзина：100&lt;/font&gt;&lt;br&gt;    " style="rounded=1;whiteSpace=wrap;html=1;" vertex="1" parent="1">
          <mxGeometry x="740" y="2263" width="221" height="61" as="geometry" />
        </mxCell>
        <mxCell id="Q4zD-7pTCFBztnlqzq78-129" value="&lt;font style=&quot;font-size: 24px;&quot;&gt;-0+&lt;/font&gt;" style="rounded=1;whiteSpace=wrap;html=1;" vertex="1" parent="1">
          <mxGeometry x="-481" y="1948" width="120" height="60" as="geometry" />
        </mxCell>
        <mxCell id="Q4zD-7pTCFBztnlqzq78-130" value="&lt;font style=&quot;font-size: 24px;&quot;&gt;-0+&lt;/font&gt;" style="rounded=1;whiteSpace=wrap;html=1;" vertex="1" parent="1">
          <mxGeometry x="427" y="2130" width="120" height="60" as="geometry" />
        </mxCell>
        <mxCell id="Q4zD-7pTCFBztnlqzq78-131" value="&lt;font style=&quot;font-size: 24px;&quot;&gt;-0+&lt;/font&gt;" style="rounded=1;whiteSpace=wrap;html=1;" vertex="1" parent="1">
          <mxGeometry x="429" y="2226" width="120" height="60" as="geometry" />
        </mxCell>
        <mxCell id="Q4zD-7pTCFBztnlqzq78-132" value="&lt;font style=&quot;font-size: 24px;&quot;&gt;-0+&lt;/font&gt;" style="rounded=1;whiteSpace=wrap;html=1;" vertex="1" parent="1">
          <mxGeometry x="432" y="2324" width="120" height="60" as="geometry" />
        </mxCell>
      </root>
    </mxGraphModel>
  </diagram>
</mxfile>
